:version 1.10
:name ASF
:units
  mass 1
  length 1
  angle deg
:documentation
  ASF file generated by Kaydara
:root
  axis xyz
  order  tx ty tz rx ry rz
  position 0 0 0
  orientation 0 0 0
:bonedata
  begin
    id 1
    name RightUpLegDummy
    direction -0.718183 -0.695806 0.00816078
    length 4.904
    axis 0 0 0 xyz
  end
  begin
    id 2
    name RightUpLeg
    direction 3.53989e-006 -0.995788 0.0916897
    length 17.4976
    axis -3.49089 -0.000906621 0.000287158 xyz
    dof rx ry rz
  end
  begin
    id 3
    name RightLeg
    direction 0.00371093 -0.995096 -0.0988418
    length 16.5821
    axis 3.68512 0.0193738 -0.131023 xyz
    dof rx ry rz
  end
  begin
    id 4
    name RightFoot
    direction 0.000791514 -0.46099 0.887405
    length 3.77069
    axis 4.84075e-005 -0.120479 -0.188788 xyz
    dof rx ry rz
  end
  begin
    id 5
    name RightToes
    direction 0.00124746 -0.014064 0.9999
    length 3.85082
    axis 0.00048216 0.542163 -0.142577 xyz
    dof rx ry rz
  end
  begin
    id 6
    name SpineDummy
    direction 8.36599e-015 1 5.97571e-016
    length 4.6813
    axis 0 0 0 xyz
  end
  begin
    id 7
    name Spine
    direction -4.63632e-008 0.999988 0.00495137
    length 10.1015
    axis -0.00138897 0.000121419 3.25764e-006 xyz
    dof rx ry rz
  end
  begin
    id 8
    name Spine1
    direction 0 0 0
    length 0
    axis -0.00138896 0.000121452 2.39764e-006 xyz
    dof rx ry rz
  end
  begin
    id 9
    name HEadDummy
    direction -3.91456e-008 0.999999 0.00127422
    length 3.43865
    axis -0.00138896 0.000121452 2.39764e-006 xyz
  end
  begin
    id 10
    name HEad
    direction -0.0222688 0.980941 0.193023
    length 5.12695
    axis -0.00138895 0.000121452 2.39764e-006 xyz
    dof rx ry rz
  end
  begin
    id 11
    name LeftShoulder1Dummy
    direction 0.998891 -0.0402508 -0.0244456
    length 3.5433
    axis -0.00138896 0.000121452 2.39764e-006 xyz
  end
  begin
    id 12
    name LeftShoulder1
    direction 0.99951 -0.000327743 0.0313091
    length 4.05031
    axis -0.00138896 0.000121452 2.39764e-006 xyz
    dof rx ry rz
  end
  begin
    id 13
    name LeftArm
    direction 0.998561 -0.00100054 -0.0536182
    length 10.3537
    axis -23.1894 0.134784 0.96751 xyz
    dof rx ry rz
  end
  begin
    id 14
    name LeftForeArm
    direction 0.998903 0.00866434 0.046012
    length 8.70632
    axis -9.91835 -0.06569 -0.177792 xyz
    dof rx ry rz
  end
  begin
    id 15
    name LeftHand
    direction 0.992938 -0.0411636 0.11126
    length 5.32135
    axis -0.00960227 -0.00340091 0.185174 xyz
    dof rx ry rz
  end
  begin
    id 16
    name RightShoulderDummy
    direction -0.998891 -0.0402509 -0.0244414
    length 3.5433
    axis -0.00138896 0.000121452 2.39764e-006 xyz
  end
  begin
    id 17
    name RightShoulder
    direction -0.99951 -0.000327827 0.0313133
    length 4.05031
    axis 0.215806 0.000203644 -0.00680151 xyz
    dof rx ry rz
  end
  begin
    id 18
    name RightArm
    direction -0.998573 -0.000999583 -0.053403
    length 10.3947
    axis -23.2009 -0.134239 -0.9641 xyz
    dof rx ry rz
  end
  begin
    id 19
    name RightForeArm
    direction -0.998898 0.00868026 0.0461306
    length 8.68355
    axis -9.92322 0.0658061 0.178869 xyz
    dof rx ry rz
  end
  begin
    id 20
    name RightHand
    direction -0.992843 -0.0414603 0.112003
    length 5.28593
    axis -0.00960634 0.00330671 -0.185226 xyz
    dof rx ry rz
  end
  begin
    id 21
    name LeftUpLegDummy
    direction 0.718183 -0.695806 0.00816078
    length 4.904
    axis 0 0 0 xyz
  end
  begin
    id 22
    name LeftUpLeg
    direction -6.8115e-006 -0.995793 0.0916336
    length 17.4976
    axis -3.48766 0.00143441 -0.000523914 xyz
    dof rx ry rz
  end
  begin
    id 23
    name LeftLeg
    direction -0.00601357 -0.995091 -0.0987824
    length 16.5821
    axis 3.68177 -0.00654038 -0.00028478 xyz
    dof rx ry rz
  end
  begin
    id 24
    name LeftFoot
    direction -0.00417578 -0.460984 0.887399
    length 3.77069
    axis 1.87232e-006 4.66002e-005 -8.1837e-006 xyz
    dof rx ry rz
  end
  begin
    id 25
    name LeftToes
    direction 0.00818058 -0.00485161 0.999955
    length 3.85048
    axis 1.06246e-005 4.65855e-005 -8.18502e-006 xyz
    dof rx ry rz
  end
:hierarchy
  begin
    root RightUpLegDummy SpineDummy LeftUpLegDummy
    RightUpLegDummy RightUpLeg
    RightUpLeg RightLeg
    RightLeg RightFoot
    RightFoot RightToes
    SpineDummy Spine
    Spine Spine1
    Spine1 HEadDummy LeftShoulder1Dummy RightShoulderDummy
    HEadDummy HEad
    LeftShoulder1Dummy LeftShoulder1
    LeftShoulder1 LeftArm
    LeftArm LeftForeArm
    LeftForeArm LeftHand
    RightShoulderDummy RightShoulder
    RightShoulder RightArm
    RightArm RightForeArm
    RightForeArm RightHand
    LeftUpLegDummy LeftUpLeg
    LeftUpLeg LeftLeg
    LeftLeg LeftFoot
    LeftFoot LeftToes
  end

:SAMPLES-PER-SECOND 24
:FULLY-SPECIFIED
:DEGREES
1
root  0.457211 40.7758 26.7235 6.07829 -58.3293 1.48221
RightUpLeg  -7.0846 -2.96023 -7.81955
RightLeg  23.9728 -9.64448 -4.87041
RightFoot  -7.61878 -0.229084 5.33149
RightToes  -2.08645e-008 3.77894e-005 6.81332e-007
Spine  -6.45619 1.45846 1.85139
Spine1  9.15948 1.93954 -2.29054
HEad  -29.5833 37.8515 -14.9269
LeftShoulder1  6.86466 -12.7114 -36.2846
LeftArm  3.55684 35.3731 -31.025
LeftForeArm  162.865 -68.4291 -154.517
LeftHand  -0.183331 -3.12896 2.73322
RightShoulder  4.13487 6.89689 33.8667
RightArm  13.4681 -36.7894 24.9927
RightForeArm  147.277 76.0907 136.94
RightHand  -0.529212 7.75584 -5.03064
LeftUpLeg  -10.8762 -1.95802 8.25948
LeftLeg  13.1846 -2.45826 0.660646
LeftFoot  3.06618 1.65955 -13.2386
LeftToes  1.24767e-006 1.47042e-008 1.32732e-009
2
root  0.39948 40.7066 26.8165 5.67122 -58.2396 1.55539
RightUpLeg  -6.23291 -7.40838 -6.63248
RightLeg  20.8975 -7.65082 -3.42537
RightFoot  -11.109 -0.0920858 8.13739
RightToes  -2.08645e-008 3.77894e-005 6.81332e-007
Spine  -6.62276 1.68393 1.43185
Spine1  10.1734 2.14119 -2.15695
HEad  -30.2027 37.4824 -15.4047
LeftShoulder1  6.7046 -12.5986 -35.6049
LeftArm  3.4947 36.7018 -30.3272
LeftForeArm  160.216 -69.0429 -153.396
LeftHand  -0.143779 -3.04522 2.21182
RightShoulder  4.11269 6.8631 33.7832
RightArm  15.0035 -34.9159 24.3385
RightForeArm  148.974 75.5222 139.023
RightHand  -0.36319 7.54886 -3.61681
LeftUpLeg  -9.88018 -0.839858 7.82429
LeftLeg  12.4274 -2.83014 0.86425
LeftFoot  2.29322 1.49897 -12.616
LeftToes  1.24767e-006 1.47042e-008 1.32732e-009
3
root  0.376461 40.3191 26.806 4.92076 -58.7362 2.28638
RightUpLeg  -6.84173 -10.9273 -5.14866
RightLeg  19.4032 -6.69704 -2.81675
RightFoot  -12.5303 -0.0111372 7.22691
RightToes  -2.08645e-008 3.77894e-005 6.81332e-007
Spine  -6.56439 1.94352 0.799163
Spine1  10.9189 2.41687 -1.85561
HEad  -30.9249 37.2076 -16.2174
LeftShoulder1  6.81442 -12.6695 -36.0881
LeftArm  4.02625 34.8864 -27.5172
LeftForeArm  152.772 -71.4572 -148.707
LeftHand  -0.19067 -3.0431 2.85755
RightShoulder  4.09646 6.85253 33.6677
RightArm  15.7295 -30.3569 24.4218
RightForeArm  141.516 77.6245 129.824
RightHand  -0.379336 7.75883 -3.7126
LeftUpLeg  -9.70061 -0.787613 7.56388
LeftLeg  13.2778 -2.33687 0.682104
LeftFoot  -1.17779 1.10186 -12.2775
LeftToes  1.24767e-006 1.47042e-008 1.32732e-009
4
root  0.37205 39.6896 26.6726 3.78624 -59.465 3.42809
RightUpLeg  -8.05747 -10.7207 -3.77624
RightLeg  20.538 -10.9344 -4.72137
RightFoot  -14.5648 -0.0503891 2.14335
RightToes  -2.08645e-008 3.77894e-005 6.81332e-007
Spine  -6.04832 2.19831 0.889774
Spine1  11.365 2.96301 -2.5177
HEad  -31.4174 37.0033 -16.5262
LeftShoulder1  7.21681 -13.0452 -37.5194
LeftArm  4.88279 30.4305 -22.6484
LeftForeArm  145.226 -74.5076 -141.057
LeftHand  -0.299793 -2.83814 4.45841
RightShoulder  4.13986 6.91735 33.8359
RightArm  14.7848 -25.3684 25.8444
RightForeArm  116.895 80.2634 103.151
RightHand  -0.409467 8.11574 -3.88545
LeftUpLeg  -9.96079 -1.72036 7.29654
LeftLeg  15.1288 -0.473229 0.631497
LeftFoot  -5.8407 0.584257 -11.3223
LeftToes  1.24767e-006 1.47042e-008 1.32732e-009
5
root  0.372917 39.0492 26.5122 2.27161 -61.1653 3.76736
RightUpLeg  -8.32813 -7.26578 -3.37212
RightLeg  23.8832 -14.3846 -7.08707
RightFoot  -18.7496 -0.0358004 1.3433
RightToes  -2.08645e-008 3.77894e-005 6.81332e-007
Spine  -3.94227 2.64854 3.84324
Spine1  11.6821 4.36749 -6.07978
HEad  -32.6814 36.7583 -16.8172
LeftShoulder1  7.57443 -13.3616 -38.7708
LeftArm  5.31495 24.3985 -18.4496
LeftForeArm  139.516 -76.7607 -132.936
LeftHand  -0.455878 -2.21399 7.16759
RightShoulder  4.23151 6.99182 34.4228
RightArm  12.9491 -22.4104 27.5112
RightForeArm  94.2991 80.4154 80.217
RightHand  -0.472977 7.91762 -4.48518
LeftUpLeg  -9.19819 -2.06504 7.2545
LeftLeg  17.4991 2.45008 1.24539
LeftFoot  -10.7113 0.122824 -10.0968
LeftToes  1.24767e-006 1.47042e-008 1.32732e-009
6
root  0.346702 38.7013 26.3869 1.9742 -63.2805 2.83934
RightUpLeg  -8.48985 -5.44223 -3.23264
RightLeg  26.5668 -12.2643 -6.80602
RightFoot  -21.3605 0.146561 3.32251
RightToes  -2.08645e-008 3.77894e-005 6.81332e-007
Spine  -2.44638 2.85448 6.64306
Spine1  12.6689 5.27183 -8.72002
HEad  -33.9979 36.9928 -17.9351
LeftShoulder1  7.82651 -13.5484 -39.7105
LeftArm  3.61429 19.5703 -17.9394
LeftForeArm  136.068 -77.7523 -128.023
LeftHand  -0.543041 -1.91755 8.81532
RightShoulder  4.22495 6.95804 34.49
RightArm  11.1925 -21.6481 28.6464
RightForeArm  91.8293 80.334 77.8283
RightHand  -0.647373 7.24847 -6.28827
LeftUpLeg  -10.1734 -1.37108 7.89403
LeftLeg  22.9495 3.60967 2.01235
LeftFoot  -13.3603 -0.11909 -11.2556
LeftToes  1.24767e-006 1.47042e-008 1.32732e-009
7
root  0.225182 38.6959 26.3285 2.53931 -65.3015 2.05269
RightUpLeg  -8.64735 -5.1336 -3.01229
RightLeg  26.6325 -9.78501 -5.51782
RightFoot  -21.087 0.106405 2.91406
RightToes  -2.08645e-008 3.77894e-005 6.81332e-007
Spine  -1.63604 2.57057 5.99954
Spine1  12.1004 4.54412 -7.27728
HEad  -33.2569 38.7828 -18.7304
LeftShoulder1  7.94689 -13.6396 -40.1446
LeftArm  0.0578885 18.9097 -21.178
LeftForeArm  137.595 -77.3765 -130.042
LeftHand  -0.529868 -1.91487 8.60741
RightShoulder  4.21936 6.93703 34.5174
RightArm  10.836 -22.5864 28.5685
RightForeArm  98.7874 80.4957 85.2435
RightHand  -0.750561 7.24639 -7.23398
LeftUpLeg  -14.3791 0.399064 8.52991
LeftLeg  32.0194 3.39545 2.65564
LeftFoot  -10.3809 0.172379 -13.1728
LeftToes  1.24767e-006 1.47042e-008 1.32732e-009
8
root  0.0411302 38.8484 26.4228 3.94963 -68.1948 1.23036
RightUpLeg  -8.38436 -2.93971 -2.71714
RightLeg  24.3191 -9.77861 -5.00602
RightFoot  -20.2245 0.043862 2.33236
RightToes  -2.08645e-008 3.77894e-005 6.81332e-007
Spine  -1.65436 2.00592 5.16108
Spine1  10.8286 3.46434 -5.69318
HEad  -31.7768 41.6154 -18.9795
LeftShoulder1  7.8628 -13.5691 -39.8596
LeftArm  -2.97864 20.2211 -25.7124
LeftForeArm  141.803 -76.0152 -136.041
LeftHand  -0.503254 -1.47346 8.68445
RightShoulder  4.23174 6.93748 34.6331
RightArm  11.9052 -23.7177 28.5334
RightForeArm  103.641 80.4728 91.3139
RightHand  -0.719743 7.08798 -7.02149
LeftUpLeg  -19.7843 3.72451 8.53196
LeftLeg  40.6474 4.98928 5.00555
LeftFoot  -4.33877 0.741751 -11.8933
LeftToes  1.24767e-006 1.47042e-008 1.32732e-009
9
root  -0.13763 39.0587 26.6562 4.5108 -73.308 1.23201
RightUpLeg  -7.90356 2.12216 -3.24051
RightLeg  21.4022 -9.28714 -4.20003
RightFoot  -19.3837 0.0739015 2.9238
RightToes  -2.08645e-008 3.77894e-005 6.81332e-007
Spine  -1.887 1.87321 5.03404
Spine1  10.4056 3.27319 -5.99854
HEad  -31.8353 43.8032 -19.9721
LeftShoulder1  7.92874 -13.6234 -40.0854
LeftArm  -3.23311 20.3979 -28.0988
LeftForeArm  145.053 -74.5447 -140.945
LeftHand  -0.518563 -1.28312 9.17497
RightShoulder  4.20958 6.89249 34.5961
RightArm  13.7263 -23.5719 28.69
RightForeArm  105.324 80.4296 93.5871
RightHand  -0.686053 6.87 -6.82929
LeftUpLeg  -23.1246 7.49003 7.80999
LeftLeg  44.8518 7.42713 8.25911
LeftFoot  -2.97142 0.621377 -8.21406
LeftToes  1.24767e-006 1.47042e-008 1.32732e-009
10
root  -0.285384 39.2252 27.0887 1.97049 -78.8698 3.84355
RightUpLeg  -7.63542 6.07913 -4.84014
RightLeg  19.4112 -7.01189 -2.94419
RightFoot  -18.1569 0.056134 3.00735
RightToes  -2.08645e-008 3.77894e-005 6.81332e-007
Spine  -0.818439 1.50953 4.38527
Spine1  9.51678 2.8262 -5.916
HEad  -32.562 44.1586 -20.6613
LeftShoulder1  8.03423 -13.7228 -40.4118
LeftArm  -0.91261 19.7133 -28.5612
LeftForeArm  148.064 -73.5209 -143.942
LeftHand  -0.503571 -1.59157 8.5459
RightShoulder  4.18843 6.8603 34.5188
RightArm  15.7166 -22.0435 28.5552
RightForeArm  104.65 80.4547 92.5555
RightHand  -0.66696 7.26196 -6.46103
LeftUpLeg  -24.2884 6.75971 7.34217
LeftLeg  44.9257 7.74341 8.60769
LeftFoot  -6.45938 0.311631 -6.39995
LeftToes  1.24767e-006 1.47042e-008 1.32732e-009
11
root  -0.48117 39.2214 27.6833 -5.05927 -85.1751 11.1977
RightUpLeg  -8.61973 9.74759 -6.23301
RightLeg  18.7281 -5.19021 -2.16563
RightFoot  -17.4053 0.0717628 3.5777
RightToes  -2.08645e-008 3.77894e-005 6.81332e-007
Spine  -0.372299 1.18468 4.42562
Spine1  9.16557 2.40529 -5.45047
HEad  -31.9619 40.7925 -18.4334
LeftShoulder1  7.9274 -13.6675 -39.9655
LeftArm  2.98999 18.3025 -28.4478
LeftForeArm  150.07 -73.1904 -145.001
LeftHand  -0.467319 -1.75586 7.77222
RightShoulder  4.22641 6.92345 34.6366
RightArm  17.2884 -19.3547 28.5965
RightForeArm  99.8301 80.4564 87.7024
RightHand  -0.630072 7.12103 -6.18894
LeftUpLeg  -24.761 0.624364 8.89321
LeftLeg  42.5659 5.42105 5.72516
LeftFoot  -10.2808 0.132993 -7.79194
LeftToes  1.24767e-006 1.47042e-008 1.32732e-009
12
root  -0.743837 39.0849 28.4417 169.182 -86.6804 -162.579
RightUpLeg  -10.713 14.7311 -7.98606
RightLeg  19.1017 -2.00862 -0.982157
RightFoot  -17.6817 0.166295 5.14797
RightToes  -2.08645e-008 3.77894e-005 6.81332e-007
Spine  -0.235713 1.3823 4.70163
Spine1  9.26575 2.51967 -4.97652
HEad  -29.5554 31.6025 -13.4488
LeftShoulder1  7.96271 -13.741 -39.9724
LeftArm  7.83161 16.604 -27.2708
LeftForeArm  151.223 -72.9627 -145.664
LeftHand  -0.455084 -2.14132 7.21871
RightShoulder  4.22682 6.93316 34.603
RightArm  18.4893 -16.223 29.1641
RightForeArm  93.916 80.3568 82.1463
RightHand  -0.783879 7.10454 -7.60322
LeftUpLeg  -24.2516 -9.91647 12.0442
LeftLeg  38.9992 1.98871 2.12346
LeftFoot  -14.0138 -0.113441 -8.58587
LeftToes  1.24767e-006 1.47042e-008 1.32732e-009
13
root  -1.11446 38.8441 29.4179 -176.167 -76.8213 -177.105
RightUpLeg  -13.8207 19.6826 -10.6809
RightLeg  20.2021 3.85677 1.36749
RightFoot  -17.7827 0.251686 6.60229
RightToes  -2.08645e-008 3.77894e-005 6.81332e-007
Spine  0.693858 1.35267 4.86355
Spine1  9.02128 2.51756 -4.83384
HEad  -26.9103 18.083 -7.45963
LeftShoulder1  7.8715 -13.6734 -39.641
LeftArm  12.0044 16.4871 -26.2326
LeftForeArm  153.503 -72.2726 -147.377
LeftHand  -0.410102 -2.59165 6.18472
RightShoulder  4.24723 6.94029 34.769
RightArm  19.3577 -13.0317 30.9567
RightForeArm  87.6464 80.1494 76.1032
RightHand  -0.751995 7.48055 -7.12361
LeftUpLeg  -22.7577 -22.9774 15.2763
LeftLeg  36.4331 -2.61225 -1.68093
LeftFoot  -19.6981 -0.493655 -8.38688
LeftToes  1.24767e-006 1.47042e-008 1.32732e-009
14
root  -1.58599 38.5339 30.502 -177.418 -65.159 -175.504
RightUpLeg  -18.3325 24.2712 -13.569
RightLeg  21.0888 8.93764 3.57999
RightFoot  -17.0412 0.313638 8.61129
RightToes  -2.08645e-008 3.77894e-005 6.81332e-007
Spine  1.60375 1.5051 3.0826
Spine1  8.70167 2.14442 -2.2451
HEad  -25.2092 2.65631 -1.48949
LeftShoulder1  7.89495 -13.7093 -39.6796
LeftArm  14.7648 17.9976 -25.5194
LeftForeArm  154.863 -71.7541 -148.529
LeftHand  -0.363381 -2.59963 5.49891
RightShoulder  4.26174 6.92537 34.9639
RightArm  19.2932 -11.308 33.5725
RightForeArm  85.0004 80.0266 73.1435
RightHand  -0.790881 7.12076 -7.67065
LeftUpLeg  -21.0306 -33.2 17.1815
LeftLeg  36.9047 -9.12876 -6.92935
LeftFoot  -24.5503 -0.914482 -9.15383
LeftToes  1.24767e-006 1.47042e-008 1.32732e-009
15
root  -2.10251 38.2031 31.7911 -177.542 -52.6666 -174.493
RightUpLeg  -23.8834 29.4463 -17.1726
RightLeg  20.9113 14.1894 5.72069
RightFoot  -16.2634 0.364452 10.989
RightToes  -2.08645e-008 3.77894e-005 6.81332e-007
Spine  1.9047 1.13674 1.15616
Spine1  9.34492 1.24711 0.278946
HEad  -25.4485 -12.5121 4.64143
LeftShoulder1  7.78693 -13.653 -39.2232
LeftArm  15.9561 19.3175 -26.2957
LeftForeArm  153.107 -72.6331 -146.617
LeftHand  -0.395189 -2.95788 5.72511
RightShoulder  4.36172 7.01142 35.5694
RightArm  19.1704 -10.576 35.4668
RightForeArm  88.4855 80.187 76.2967
RightHand  -0.722516 7.58765 -6.80869
LeftUpLeg  -18.6893 -38.3963 16.4543
LeftLeg  39.0279 -14.1941 -11.6718
LeftFoot  -25.8566 -0.84345 -7.82105
LeftToes  1.24767e-006 1.47042e-008 1.32732e-009
